2014001_C1_01_grf
version=1
nRows=15
nColumns=19
inDegrees=no
endheader
time	ground_force_1_vx	ground_force_1_vy	ground_force_1_vz	ground_force_1_px	ground_force_1_py	ground_force_1_pz	ground_force_1_mx	ground_force_1_my	ground_force_1_mz	ground_force_2_vx	ground_force_2_vy	ground_force_2_vz	ground_force_2_px	ground_force_2_py	ground_force_2_pz	ground_force_2_mx	ground_force_2_my	ground_force_2_mz
      1.93500000	    -11.74262315	    659.34667364	     13.53835193	      0.35247232	     -0.00200000	      0.35741528	      0.00000000	      1.79758363	      0.00000000	      0.00000000	      0.00000000	      0.00000000	      0.00000000	      0.00000000	      0.00000000	      0.00000000	      0.00000000	      0.00000000
      1.93600000	    -11.62396967	    659.45836157	     13.54719317	      0.35242726	     -0.00200000	      0.35714719	      0.00000000	      1.79710665	      0.00000000	      0.00000000	      0.00000000	      0.00000000	      0.00000000	      0.00000000	      0.00000000	      0.00000000	      0.00000000	      0.00000000
      1.93700000	    -11.49336472	    659.58832949	     13.55597950	      0.35238113	     -0.00200000	      0.35687710	      0.00000000	      1.79615765	      0.00000000	      0.00000000	      0.00000000	      0.00000000	      0.00000000	      0.00000000	      0.00000000	      0.00000000	      0.00000000	      0.00000000
      1.93800000	    -11.35359481	    659.73237902	     13.56465267	      0.35233422	     -0.00200000	      0.35660536	      0.00000000	      1.79482181	      0.00000000	      0.00000000	      0.00000000	      0.00000000	      0.00000000	      0.00000000	      0.00000000	      0.00000000	      0.00000000	      0.00000000
      1.93900000	    -11.20292321	    659.89309177	     13.57311923	      0.35228651	     -0.00200000	      0.35633157	      0.00000000	      1.79299334	      0.00000000	      0.00000000	      0.00000000	      0.00000000	      0.00000000	      0.00000000	      0.00000000	      0.00000000	      0.00000000	      0.00000000
      1.94000000	    -11.04401499	    660.06642580	     13.58138463	      0.35223831	     -0.00200000	      0.35605607	      0.00000000	      1.79076443	      0.00000000	      0.00000000	      0.00000000	      0.00000000	      0.00000000	      0.00000000	      0.00000000	      0.00000000	      0.00000000	      0.00000000
      1.94100000	    -10.87547466	    660.25438905	     13.58937258	      0.35218964	     -0.00200000	      0.35577839	      0.00000000	      1.78802853	      0.00000000	      0.00000000	      0.00000000	      0.00000000	      0.00000000	      0.00000000	      0.00000000	      0.00000000	      0.00000000	      0.00000000
      1.94200000	    -10.69979742	    660.45314819	     13.59713674	      0.35214072	     -0.00200000	      0.35549891	      0.00000000	      1.78488302	      0.00000000	      0.00000000	      0.00000000	      0.00000000	      0.00000000	      0.00000000	      0.00000000	      0.00000000	      0.00000000	      0.00000000
      1.94300000	    -10.51595919	    660.66413745	     13.60463519	      0.35209168	     -0.00200000	      0.35521711	      0.00000000	      1.78122122	      0.00000000	      0.00000000	      0.00000000	      0.00000000	      0.00000000	      0.00000000	      0.00000000	      0.00000000	      0.00000000	      0.00000000
      1.94400000	    -10.32622829	    660.88388860	     13.61194756	      0.35204268	     -0.00200000	      0.35493337	      0.00000000	      1.77714346	      0.00000000	      0.00000000	      0.00000000	      0.00000000	      0.00000000	      0.00000000	      0.00000000	      0.00000000	      0.00000000	      0.00000000
      1.94500000	    -10.12996137	    661.11323610	     13.61907804	      0.35199388	     -0.00200000	      0.35464715	      0.00000000	      1.77254322	      0.00000000	      0.00000000	      0.00000000	      0.00000000	      0.00000000	      0.00000000	      0.00000000	      0.00000000	      0.00000000	      0.00000000
      1.94600000	     -9.92914811	    661.34910285	     13.62611800	      0.35194541	     -0.00200000	      0.35435887	      0.00000000	      1.76752479	      0.00000000	      0.00000000	      0.00000000	      0.00000000	      0.00000000	      0.00000000	      0.00000000	      0.00000000	      0.00000000	      0.00000000
      1.94700000	     -9.72352810	    661.59159318	     13.63313240	      0.35189751	     -0.00200000	      0.35406797	      0.00000000	      1.76198664	      0.00000000	      0.00000000	      0.00000000	      0.00000000	      0.00000000	      0.00000000	      0.00000000	      0.00000000	      0.00000000	      0.00000000
      1.94800000	     -9.51477364	    661.83830798	     13.64020463	      0.35185021	     -0.00200000	      0.35377486	      0.00000000	      1.75603546	      0.00000000	      0.00000000	      0.00000000	      0.00000000	      0.00000000	      0.00000000	      0.00000000	      0.00000000	      0.00000000	      0.00000000
      1.94900000	     -9.30300280	    662.08864748	     13.64746210	      0.35180386	     -0.00200000	      0.35347895	      0.00000000	      1.74957648	      0.00000000	      0.00000000	      0.00000000	      0.00000000	      0.00000000	      0.00000000	      0.00000000	      0.00000000	      0.00000000	      0.00000000
